<?xml version="1.0" encoding="UTF-8"?>
<svg xmlns="http://www.w3.org/2000/svg" version="1.1" viewBox="0 0 1080 329.59">
  <defs>
    <style>
      .cls-1 {
        fill: #fff;
      }
    </style>
  </defs>
  <!-- Generator: Adobe Illustrator 28.6.0, SVG Export Plug-In . SVG Version: 1.2.0 Build 709)  -->
  <g>
    <g id="Layer_1">
      <g>
        <path class="cls-1" d="M734.07,195.53c0-21.51-.05-43.02.02-64.53.05-16.1,8.57-24.95,24.53-24.95,27.92,0,20.39,68.3,20.42,89.8.03,21.08,8.45,36.91,27.9,46.44,11.57,5.67,16.13,15.15,13.51,26.29-2.49,10.63-11.61,17.2-24.16,17.26-12.55.06-25.1.06-37.64-.01-15.66-.08-24.57-9.12-24.6-25-.05-21.77-.01-43.53-.01-65.3h.03Z"/>
        <path class="cls-1" d="M756.1,92.68c-6.66,0,.11.11-6.55-.02-14.19-.3-23.84-10.38-23.75-24.65.09-13.85,9.73-23.95,23.46-24.14,13.83-.19.8-.21,14.63,0,12.82.19,22.63,10.2,23.07,23.07.48,13.93-8.68,24.82-22.02,25.61-7.4.43-1.42.08-8.85.08,0,.02,0,.04,0,.07Z"/>
        <path class="cls-1" d="M460.51,196.4c0,21.51-.05,43.02.02,64.53.05,15.59,13.55,29.31,30.69,23.54,18.44-6.22,15.47-26.67,15.78-39.3.4-16.38-2.35-32.7-1.51-49.08,1.08-21.06,8.45-36.91,27.9-46.44,11.57-5.67,16.13-15.15,13.51-26.29-2.49-10.63-11.61-17.2-24.16-17.26-12.55-.06-25.1-.06-37.64.01-15.66.08-24.57,9.12-24.6,25-.05,21.77-.01,43.53.02,65.3Z"/>
        <path class="cls-1" d="M430.73,242.29c-19.45-9.52-27.87-25.35-27.9-46.44-.03-21.49,8.93-37.29,28.63-46.81,10.98-5.3,18.17-17.44,11.46-29.14-5.25-9.17-14.65-9.02-23.73-11.32-8.62-2.18-11.74-13.68-12.43-19.4-1.56-12.9,1.02-31.65-10.19-40.32-17.25-13.34-35.95,1.43-35.97,19.13,0,9.55.68,16.14-.96,25.72-1.03,5.97-3.2,12.5-9.1,15.32-7.52,3.59-15.56,3.16-21.65,9.91-4.24,4.7-5.9,10.27-4.6,16.43,1.83,8.69,9.39,15.4,18.11,16.71,5.44.81,11.86,1.28,15.58,5.33,4.07,4.41,2.51,12.31,2.6,17.79.11,6.78-.11,13.58-.11,20.36,0,21.77-.04,43.53.01,65.3.04,15.88,6.31,24.91,21.97,25,12.55.07,25.1.07,37.64.01,12.55-.06,21.67-6.63,24.16-17.26,2.61-11.14-1.94-20.63-13.51-26.29Z"/>
        <path class="cls-1" d="M67.38,165.85c0-12.15-.08-24.31.03-36.46.13-14.23,9.12-23.22,23.28-23.35,11.65-.1,20.66-.19,32.3.02,11.26.21,19.92,7.04,22.3,17.11,2.45,10.36-1.83,19.84-12.38,25.02-36.82,18.1-33.19,63.23-7.04,82.98,15.47,11.69,32.63,13.91,50.11,5.72,17.29-8.11,27.05-21.94,28.15-41.69,1.2-21.6-6.34-36.2-24.3-46.3-11.55-6.5-16.16-14.77-13.53-25.8,2.53-10.63,11.29-16.99,23.82-17.1,11.14-.09,19.65-.14,30.78,0,14.14.18,23.15,9.26,23.21,23.49.1,23.04.15,46.09,0,69.13-.33,48.34-39.67,86.93-88.8,87.26-47.31.32-87.18-38.92-87.92-86.61-.17-11.14-.03-22.28-.02-33.42Z"/>
        <path class="cls-1" d="M262.09,195.34c0-16.71.07-84.04.11-120.95.01-11.81,8.6-21.91,20.28-23.7,2.64-.41,5.41-.11,8.11.73,9.13,2.83,15.23,11.47,15.59,21.02l.87,16.55s0,97.61.02,119.11c.03,21.08,8.45,24.48,27.9,34,11.57,5.67,16.13,15.15,13.51,26.29-2.49,10.63-11.61,17.2-24.16,17.26-12.55.06-25.1.06-37.64-.01-15.66-.08-24.57-9.12-24.6-25-.05-21.77-.01-43.53-.01-65.3h.03Z"/>
        <path class="cls-1" d="M1012.62,225.95c0,12.15.08,24.31-.03,36.46-.13,14.23-9.12,23.22-23.28,23.35-11.65.1-20.66.19-32.3-.02-11.26-.21-19.92-7.04-22.3-17.11-2.45-10.36,1.83-19.84,12.38-25.02,36.82-18.1,33.19-63.23,7.04-82.98-15.47-11.69-32.63-13.91-50.11-5.72-17.29,8.11-27.05,21.94-28.15,41.69-1.2,21.6,6.34,36.2,24.3,46.3,11.55,6.5,16.16,14.77,13.53,25.8-2.53,10.63-11.29,16.99-23.82,17.1-11.14.09-19.65.14-30.78,0-14.14-.18-23.15-9.26-23.21-23.49-.1-23.04-.15-46.09,0-69.13.33-48.34,39.67-86.93,88.8-87.26,47.31-.32,87.18,38.92,87.92,86.61.17,11.14.03,22.28.02,33.42Z"/>
        <path class="cls-1" d="M716.97,232.22c-.37-10.04-8-18.54-16.99-20.43-9.45-1.98-17.6,2.06-22.61,11.2-1.7,3.1-3.28,6.29-5.18,9.25-14.39,22.51-44.89,24.37-66.24,8.8-5.89-4.3-10.21-10.62-13.92-17.56-3.25-6.08,5.36-8.34,5.36-8.34l87.61-28.75c2.7-.88,5.43-1.65,8.17-2.37,6.85-1.8,23.96-8.28,23.96-28.11,0-11.27.1-14.63.02-25.91-.1-14.3-8.78-23.54-22.27-23.66-11.62-.11-23.23-.02-34.85-.02-10.41,0-20.81-.05-31.22,0-45.54.27-83.03,38.92-84.2,86.78-1.2,48.81,25.46,92.44,79.3,92.44,24.18,0,48.39.56,72.59.26,11.3-.14,20.04-9.03,20.49-20.77.52-13.56.47-19.25-.02-32.81ZM587.57,170.55c1.01-2.33,2.19-4.55,3.55-6.62,7.26-11.03,18.95-18.9,31.75-21.98,12.21-2.94,28-1.64,37.95,6.9,3.09,2.65,3.21,7.85-1.31,9.26l-64.81,20.19c-3.12.97-6.6-.7-7.43-3.86-.32-1.23-.26-2.58.31-3.89Z"/>
      </g>
    </g>
  </g>
</svg>